<mxfile host="app.diagrams.net" agent="Mozilla/5.0 (Windows NT 10.0; Win64; x64) AppleWebKit/537.36 (KHTML, like Gecko) Chrome/127.0.0.0 Safari/537.36" version="24.7.6">
  <diagram name="PÃ¡gina-1" id="1gBmtWovFUda9yKvvjN_">
    <mxGraphModel dx="2826" dy="3253" grid="1" gridSize="10" guides="1" tooltips="1" connect="1" arrows="1" fold="1" page="1" pageScale="1" pageWidth="827" pageHeight="1169" math="0" shadow="0">
      <root>
        <mxCell id="0" />
        <mxCell id="1" parent="0" />
        <mxCell id="1Idk6-fjbgLtCcOZboem-2" value="" style="rounded=0;whiteSpace=wrap;html=1;" vertex="1" parent="1">
          <mxGeometry x="-390" y="-1410" width="1580" height="1810" as="geometry" />
        </mxCell>
        <mxCell id="1Idk6-fjbgLtCcOZboem-12" value="" style="html=1;shadow=0;dashed=0;fillColor=#343A40;strokeColor=none;fontSize=16;fontColor=#ffffff;align=left;spacing=15;" vertex="1" parent="1">
          <mxGeometry x="-360" y="-1400" width="1520" height="60" as="geometry" />
        </mxCell>
        <mxCell id="1Idk6-fjbgLtCcOZboem-13" value="" style="swimlane;shape=mxgraph.bootstrap.anchor;strokeColor=none;fillColor=none;fontColor=#0085FC;fontStyle=0;childLayout=stackLayout;horizontal=0;startSize=0;horizontalStack=1;resizeParent=1;resizeParentMax=0;resizeLast=0;collapsible=0;marginBottom=0;whiteSpace=wrap;html=1;resizeWidth=0;" vertex="1" parent="1Idk6-fjbgLtCcOZboem-12">
          <mxGeometry y="10" width="350" height="40" as="geometry" />
        </mxCell>
        <mxCell id="1Idk6-fjbgLtCcOZboem-14" value="Navbar" style="text;strokeColor=none;align=left;verticalAlign=middle;spacingLeft=15;spacingRight=10;points=[[0,0.5],[1,0.5]];portConstraint=eastwest;rotatable=0;whiteSpace=wrap;html=1;fillColor=none;fontColor=#ffffff;fontSize=16;" vertex="1" parent="1Idk6-fjbgLtCcOZboem-13">
          <mxGeometry width="80" height="40" as="geometry" />
        </mxCell>
        <mxCell id="1Idk6-fjbgLtCcOZboem-15" value="Home" style="text;strokeColor=none;align=center;verticalAlign=middle;spacingLeft=10;spacingRight=10;points=[[0,0.5],[1,0.5]];portConstraint=eastwest;rotatable=0;whiteSpace=wrap;html=1;fillColor=none;fontColor=#ffffff;fontSize=14;" vertex="1" parent="1Idk6-fjbgLtCcOZboem-13">
          <mxGeometry x="80" width="60" height="40" as="geometry" />
        </mxCell>
        <mxCell id="1Idk6-fjbgLtCcOZboem-16" value="Features" style="text;strokeColor=none;align=center;verticalAlign=middle;spacingLeft=10;spacingRight=10;points=[[0,0.5],[1,0.5]];portConstraint=eastwest;rotatable=0;whiteSpace=wrap;html=1;fillColor=none;fontColor=#9A9DA0;fontSize=14;" vertex="1" parent="1Idk6-fjbgLtCcOZboem-13">
          <mxGeometry x="140" width="80" height="40" as="geometry" />
        </mxCell>
        <mxCell id="1Idk6-fjbgLtCcOZboem-17" value="Pricing" style="text;strokeColor=none;align=left;verticalAlign=middle;spacingLeft=5;spacingRight=10;points=[[0,0.5],[1,0.5]];portConstraint=eastwest;rotatable=0;whiteSpace=wrap;html=1;fillColor=none;fontColor=#9A9DA0;fontSize=14;" vertex="1" parent="1Idk6-fjbgLtCcOZboem-13">
          <mxGeometry x="220" width="70" height="40" as="geometry" />
        </mxCell>
        <mxCell id="1Idk6-fjbgLtCcOZboem-18" value="About" style="text;strokeColor=none;align=center;verticalAlign=middle;spacingLeft=10;spacingRight=10;points=[[0,0.5],[1,0.5]];portConstraint=eastwest;rotatable=0;whiteSpace=wrap;html=1;fillColor=none;fontColor=#9A9DA0;fontSize=14;" vertex="1" parent="1Idk6-fjbgLtCcOZboem-13">
          <mxGeometry x="290" width="60" height="40" as="geometry" />
        </mxCell>
        <mxCell id="1Idk6-fjbgLtCcOZboem-19" value="LOGIN" style="html=1;shadow=0;dashed=0;shape=mxgraph.bootstrap.rrect;rSize=5;fontSize=14;fontColor=#1CA5B8;strokeColor=#1CA5B8;fillColor=none;" vertex="1" parent="1Idk6-fjbgLtCcOZboem-12">
          <mxGeometry x="1" width="70" height="40" relative="1" as="geometry">
            <mxPoint x="-80" y="10" as="offset" />
          </mxGeometry>
        </mxCell>
        <mxCell id="1Idk6-fjbgLtCcOZboem-21" value="First slide" style="html=1;shadow=0;dashed=0;strokeColor=none;strokeWidth=1;fillColor=#777777;fontColor=#555555;whiteSpace=wrap;align=center;verticalAlign=middle;fontStyle=0;fontSize=40;" vertex="1" parent="1">
          <mxGeometry x="-360" y="-1330" width="1520" height="500" as="geometry" />
        </mxCell>
        <mxCell id="1Idk6-fjbgLtCcOZboem-22" value="" style="html=1;verticalLabelPosition=bottom;labelBackgroundColor=#ffffff;verticalAlign=top;shadow=0;dashed=0;strokeWidth=4;shape=mxgraph.ios7.misc.more;strokeColor=#a0a0a0;" vertex="1" parent="1Idk6-fjbgLtCcOZboem-21">
          <mxGeometry x="1" y="0.5" width="7" height="14" relative="1" as="geometry">
            <mxPoint x="-50" y="-7" as="offset" />
          </mxGeometry>
        </mxCell>
        <mxCell id="1Idk6-fjbgLtCcOZboem-23" value="" style="flipH=1;html=1;verticalLabelPosition=bottom;labelBackgroundColor=#ffffff;verticalAlign=top;shadow=0;dashed=0;strokeWidth=4;shape=mxgraph.ios7.misc.more;strokeColor=#a0a0a0;" vertex="1" parent="1Idk6-fjbgLtCcOZboem-21">
          <mxGeometry y="0.5" width="7" height="14" relative="1" as="geometry">
            <mxPoint x="43" y="-7" as="offset" />
          </mxGeometry>
        </mxCell>
        <mxCell id="1Idk6-fjbgLtCcOZboem-24" value="" style="html=1;shadow=0;strokeColor=none;fillColor=#ffffff;" vertex="1" parent="1Idk6-fjbgLtCcOZboem-21">
          <mxGeometry x="0.5" y="1" width="30" height="4" relative="1" as="geometry">
            <mxPoint x="-50" y="-20" as="offset" />
          </mxGeometry>
        </mxCell>
        <mxCell id="1Idk6-fjbgLtCcOZboem-25" value="" style="html=1;shadow=0;strokeColor=none;fillColor=#BBBBBB;" vertex="1" parent="1Idk6-fjbgLtCcOZboem-21">
          <mxGeometry x="0.5" y="1" width="30" height="4" relative="1" as="geometry">
            <mxPoint x="-15" y="-20" as="offset" />
          </mxGeometry>
        </mxCell>
        <mxCell id="1Idk6-fjbgLtCcOZboem-26" value="" style="html=1;shadow=0;strokeColor=none;fillColor=#BBBBBB;" vertex="1" parent="1Idk6-fjbgLtCcOZboem-21">
          <mxGeometry x="0.5" y="1" width="30" height="4" relative="1" as="geometry">
            <mxPoint x="20" y="-20" as="offset" />
          </mxGeometry>
        </mxCell>
        <mxCell id="1Idk6-fjbgLtCcOZboem-29" value="Some quick example text to build on the card title and make up the bulk of the card&#39;s content." style="html=1;shadow=0;dashed=0;shape=mxgraph.bootstrap.rrect;rSize=5;strokeColor=#DFDFDF;html=1;whiteSpace=wrap;fillColor=#ffffff;fontColor=#000000;verticalAlign=bottom;align=left;spacing=20;fontSize=14;" vertex="1" parent="1">
          <mxGeometry x="-140" y="-660" width="250" height="260" as="geometry" />
        </mxCell>
        <mxCell id="1Idk6-fjbgLtCcOZboem-30" value="Image cap" style="html=1;shadow=0;dashed=0;shape=mxgraph.bootstrap.topButton;rSize=5;perimeter=none;whiteSpace=wrap;fillColor=#868E96;strokeColor=#DFDFDF;fontColor=#DEE2E6;resizeWidth=1;fontSize=18;" vertex="1" parent="1Idk6-fjbgLtCcOZboem-29">
          <mxGeometry width="250" height="180" relative="1" as="geometry" />
        </mxCell>
        <mxCell id="1Idk6-fjbgLtCcOZboem-31" value="Some quick example text to build on the card title and make up the bulk of the card&#39;s content." style="html=1;shadow=0;dashed=0;shape=mxgraph.bootstrap.rrect;rSize=5;strokeColor=#DFDFDF;html=1;whiteSpace=wrap;fillColor=#ffffff;fontColor=#000000;verticalAlign=bottom;align=left;spacing=20;fontSize=14;" vertex="1" parent="1">
          <mxGeometry x="130" y="-370" width="250" height="260" as="geometry" />
        </mxCell>
        <mxCell id="1Idk6-fjbgLtCcOZboem-32" value="Image cap" style="html=1;shadow=0;dashed=0;shape=mxgraph.bootstrap.topButton;rSize=5;perimeter=none;whiteSpace=wrap;fillColor=#868E96;strokeColor=#DFDFDF;fontColor=#DEE2E6;resizeWidth=1;fontSize=18;" vertex="1" parent="1Idk6-fjbgLtCcOZboem-31">
          <mxGeometry width="250" height="180" relative="1" as="geometry" />
        </mxCell>
        <mxCell id="1Idk6-fjbgLtCcOZboem-33" value="Some quick example text to build on the card title and make up the bulk of the card&#39;s content." style="html=1;shadow=0;dashed=0;shape=mxgraph.bootstrap.rrect;rSize=5;strokeColor=#DFDFDF;html=1;whiteSpace=wrap;fillColor=#ffffff;fontColor=#000000;verticalAlign=bottom;align=left;spacing=20;fontSize=14;" vertex="1" parent="1">
          <mxGeometry x="-140" y="-370" width="250" height="260" as="geometry" />
        </mxCell>
        <mxCell id="1Idk6-fjbgLtCcOZboem-34" value="Image cap" style="html=1;shadow=0;dashed=0;shape=mxgraph.bootstrap.topButton;rSize=5;perimeter=none;whiteSpace=wrap;fillColor=#868E96;strokeColor=#DFDFDF;fontColor=#DEE2E6;resizeWidth=1;fontSize=18;" vertex="1" parent="1Idk6-fjbgLtCcOZboem-33">
          <mxGeometry width="250" height="180" relative="1" as="geometry" />
        </mxCell>
        <mxCell id="1Idk6-fjbgLtCcOZboem-35" value="Some quick example text to build on the card title and make up the bulk of the card&#39;s content." style="html=1;shadow=0;dashed=0;shape=mxgraph.bootstrap.rrect;rSize=5;strokeColor=#DFDFDF;html=1;whiteSpace=wrap;fillColor=#ffffff;fontColor=#000000;verticalAlign=bottom;align=left;spacing=20;fontSize=14;" vertex="1" parent="1">
          <mxGeometry x="400" y="-660" width="250" height="260" as="geometry" />
        </mxCell>
        <mxCell id="1Idk6-fjbgLtCcOZboem-36" value="Image cap" style="html=1;shadow=0;dashed=0;shape=mxgraph.bootstrap.topButton;rSize=5;perimeter=none;whiteSpace=wrap;fillColor=#868E96;strokeColor=#DFDFDF;fontColor=#DEE2E6;resizeWidth=1;fontSize=18;" vertex="1" parent="1Idk6-fjbgLtCcOZboem-35">
          <mxGeometry width="250" height="180" relative="1" as="geometry" />
        </mxCell>
        <mxCell id="1Idk6-fjbgLtCcOZboem-37" value="Some quick example text to build on the card title and make up the bulk of the card&#39;s content." style="html=1;shadow=0;dashed=0;shape=mxgraph.bootstrap.rrect;rSize=5;strokeColor=#DFDFDF;html=1;whiteSpace=wrap;fillColor=#ffffff;fontColor=#000000;verticalAlign=bottom;align=left;spacing=20;fontSize=14;" vertex="1" parent="1">
          <mxGeometry x="400" y="-370" width="250" height="260" as="geometry" />
        </mxCell>
        <mxCell id="1Idk6-fjbgLtCcOZboem-38" value="Image cap" style="html=1;shadow=0;dashed=0;shape=mxgraph.bootstrap.topButton;rSize=5;perimeter=none;whiteSpace=wrap;fillColor=#868E96;strokeColor=#DFDFDF;fontColor=#DEE2E6;resizeWidth=1;fontSize=18;" vertex="1" parent="1Idk6-fjbgLtCcOZboem-37">
          <mxGeometry width="250" height="180" relative="1" as="geometry" />
        </mxCell>
        <mxCell id="1Idk6-fjbgLtCcOZboem-39" value="Some quick example text to build on the card title and make up the bulk of the card&#39;s content." style="html=1;shadow=0;dashed=0;shape=mxgraph.bootstrap.rrect;rSize=5;strokeColor=#DFDFDF;html=1;whiteSpace=wrap;fillColor=#ffffff;fontColor=#000000;verticalAlign=bottom;align=left;spacing=20;fontSize=14;" vertex="1" parent="1">
          <mxGeometry x="130" y="-660" width="250" height="260" as="geometry" />
        </mxCell>
        <mxCell id="1Idk6-fjbgLtCcOZboem-40" value="Image cap" style="html=1;shadow=0;dashed=0;shape=mxgraph.bootstrap.topButton;rSize=5;perimeter=none;whiteSpace=wrap;fillColor=#868E96;strokeColor=#DFDFDF;fontColor=#DEE2E6;resizeWidth=1;fontSize=18;" vertex="1" parent="1Idk6-fjbgLtCcOZboem-39">
          <mxGeometry width="250" height="180" relative="1" as="geometry" />
        </mxCell>
        <mxCell id="1Idk6-fjbgLtCcOZboem-41" value="Some quick example text to build on the card title and make up the bulk of the card&#39;s content." style="html=1;shadow=0;dashed=0;shape=mxgraph.bootstrap.rrect;rSize=5;strokeColor=#DFDFDF;html=1;whiteSpace=wrap;fillColor=#ffffff;fontColor=#000000;verticalAlign=bottom;align=left;spacing=20;fontSize=14;" vertex="1" parent="1">
          <mxGeometry x="670" y="-660" width="250" height="260" as="geometry" />
        </mxCell>
        <mxCell id="1Idk6-fjbgLtCcOZboem-42" value="Image cap" style="html=1;shadow=0;dashed=0;shape=mxgraph.bootstrap.topButton;rSize=5;perimeter=none;whiteSpace=wrap;fillColor=#868E96;strokeColor=#DFDFDF;fontColor=#DEE2E6;resizeWidth=1;fontSize=18;" vertex="1" parent="1Idk6-fjbgLtCcOZboem-41">
          <mxGeometry width="250" height="180" relative="1" as="geometry" />
        </mxCell>
        <mxCell id="1Idk6-fjbgLtCcOZboem-43" value="Some quick example text to build on the card title and make up the bulk of the card&#39;s content." style="html=1;shadow=0;dashed=0;shape=mxgraph.bootstrap.rrect;rSize=5;strokeColor=#DFDFDF;html=1;whiteSpace=wrap;fillColor=#ffffff;fontColor=#000000;verticalAlign=bottom;align=left;spacing=20;fontSize=14;" vertex="1" parent="1">
          <mxGeometry x="670" y="-370" width="250" height="260" as="geometry" />
        </mxCell>
        <mxCell id="1Idk6-fjbgLtCcOZboem-44" value="Image cap" style="html=1;shadow=0;dashed=0;shape=mxgraph.bootstrap.topButton;rSize=5;perimeter=none;whiteSpace=wrap;fillColor=#868E96;strokeColor=#DFDFDF;fontColor=#DEE2E6;resizeWidth=1;fontSize=18;" vertex="1" parent="1Idk6-fjbgLtCcOZboem-43">
          <mxGeometry width="250" height="180" relative="1" as="geometry" />
        </mxCell>
        <mxCell id="1Idk6-fjbgLtCcOZboem-51" value="" style="swimlane;shape=mxgraph.bootstrap.anchor;strokeColor=#DEE2E6;fillColor=#ffffff;fontColor=#0085FC;fontStyle=0;childLayout=stackLayout;horizontal=0;startSize=0;horizontalStack=1;resizeParent=1;resizeParentMax=0;resizeLast=0;collapsible=0;marginBottom=0;whiteSpace=wrap;html=1;" vertex="1" parent="1">
          <mxGeometry x="304" y="-80" width="220" height="30" as="geometry" />
        </mxCell>
        <mxCell id="1Idk6-fjbgLtCcOZboem-52" value="Previous" style="text;strokeColor=inherit;align=center;verticalAlign=middle;spacingLeft=5;spacingRight=5;overflow=hidden;points=[[0,0.5],[1,0.5]];portConstraint=eastwest;rotatable=0;whiteSpace=wrap;html=1;shape=mxgraph.bootstrap.leftButton;rSize=5;fillColor=inherit;fontColor=inherit;fontSize=14;" vertex="1" parent="1Idk6-fjbgLtCcOZboem-51">
          <mxGeometry width="70" height="30" as="geometry" />
        </mxCell>
        <mxCell id="1Idk6-fjbgLtCcOZboem-53" value="1" style="text;strokeColor=inherit;align=center;verticalAlign=middle;spacingLeft=5;spacingRight=5;overflow=hidden;points=[[0,0.5],[1,0.5]];portConstraint=eastwest;rotatable=0;whiteSpace=wrap;html=1;rSize=5;fillColor=inherit;fontColor=inherit;fontSize=14;" vertex="1" parent="1Idk6-fjbgLtCcOZboem-51">
          <mxGeometry x="70" width="30" height="30" as="geometry" />
        </mxCell>
        <mxCell id="1Idk6-fjbgLtCcOZboem-54" value="2" style="text;strokeColor=inherit;align=center;verticalAlign=middle;spacingLeft=5;spacingRight=5;overflow=hidden;points=[[0,0.5],[1,0.5]];portConstraint=eastwest;rotatable=0;whiteSpace=wrap;html=1;rSize=5;fillColor=inherit;fontColor=inherit;fontSize=14;" vertex="1" parent="1Idk6-fjbgLtCcOZboem-51">
          <mxGeometry x="100" width="30" height="30" as="geometry" />
        </mxCell>
        <mxCell id="1Idk6-fjbgLtCcOZboem-55" value="3" style="text;strokeColor=inherit;align=center;verticalAlign=middle;spacingLeft=5;spacingRight=5;overflow=hidden;points=[[0,0.5],[1,0.5]];portConstraint=eastwest;rotatable=0;whiteSpace=wrap;html=1;rSize=5;fillColor=inherit;fontColor=inherit;fontSize=14;" vertex="1" parent="1Idk6-fjbgLtCcOZboem-51">
          <mxGeometry x="130" width="30" height="30" as="geometry" />
        </mxCell>
        <mxCell id="1Idk6-fjbgLtCcOZboem-56" value="Next" style="text;strokeColor=inherit;align=center;verticalAlign=middle;spacingLeft=5;spacingRight=5;overflow=hidden;points=[[0,0.5],[1,0.5]];portConstraint=eastwest;rotatable=0;whiteSpace=wrap;html=1;shape=mxgraph.bootstrap.rightButton;rSize=5;fillColor=inherit;fontColor=inherit;fontSize=14;" vertex="1" parent="1Idk6-fjbgLtCcOZboem-51">
          <mxGeometry x="160" width="60" height="30" as="geometry" />
        </mxCell>
        <mxCell id="1Idk6-fjbgLtCcOZboem-57" value="FOOTER" style="rounded=1;whiteSpace=wrap;html=1;" vertex="1" parent="1">
          <mxGeometry x="-20" y="200" width="840" height="170" as="geometry" />
        </mxCell>
      </root>
    </mxGraphModel>
  </diagram>
</mxfile>
